<?xml version="1.0" encoding="UTF-8" standalone="no"?>
<!-- Generator: Adobe Illustrator 16.0.0, SVG Export Plug-In . SVG Version: 6.00 Build 0)  -->

<svg
   xmlns:dc="http://purl.org/dc/elements/1.1/"
   xmlns:cc="http://creativecommons.org/ns#"
   xmlns:rdf="http://www.w3.org/1999/02/22-rdf-syntax-ns#"
   xmlns:svg="http://www.w3.org/2000/svg"
   xmlns="http://www.w3.org/2000/svg"
   xmlns:sodipodi="http://sodipodi.sourceforge.net/DTD/sodipodi-0.dtd"
   xmlns:inkscape="http://www.inkscape.org/namespaces/inkscape"
   version="1.1"
   id="Layer_1"
   x="0px"
   y="0px"
   width="96px"
   height="96px"
   viewBox="0 0 96 96"
   enable-background="new 0 0 96 96"
   xml:space="preserve"
   inkscape:version="0.48.5 r10040"
   sodipodi:docname="live.svg"><metadata
   id="metadata13"><rdf:RDF><cc:Work
       rdf:about=""><dc:format>image/svg+xml</dc:format><dc:type
         rdf:resource="http://purl.org/dc/dcmitype/StillImage" /><dc:title></dc:title></cc:Work></rdf:RDF></metadata><defs
   id="defs11" /><sodipodi:namedview
   pagecolor="#ffffff"
   bordercolor="#666666"
   borderopacity="1"
   objecttolerance="10"
   gridtolerance="10"
   guidetolerance="10"
   inkscape:pageopacity="0"
   inkscape:pageshadow="2"
   inkscape:window-width="1682"
   inkscape:window-height="941"
   id="namedview9"
   showgrid="false"
   inkscape:zoom="2.4583333"
   inkscape:cx="-15.457627"
   inkscape:cy="48"
   inkscape:window-x="1"
   inkscape:window-y="0"
   inkscape:window-maximized="0"
   inkscape:current-layer="Layer_1" />
<g
   id="g3">
	<path
   fill="#FFFFFF"
   d="M7.778,64.072C6.243,61.913,5.4,59.319,5.4,56.609c0-3.371,1.31-6.435,3.434-8.737v-29.51h78.332v29.51   c2.124,2.302,3.434,5.366,3.434,8.737c0,2.709-0.843,5.304-2.378,7.462c1.551,1.104,2.927,2.442,4.111,3.95h0.833V12.363H2.834   v55.658h0.834C4.852,66.514,6.228,65.176,7.778,64.072z"
   id="path5"
   style="fill:#000000;fill-opacity:1" />
	<path
   fill="#FFFFFF"
   d="M84.293,64.746c2.322-1.91,3.807-4.805,3.807-8.04c0-5.74-4.67-10.409-10.408-10.409c-5.74,0-10.408,4.669-10.408,10.409   c0,3.235,1.484,6.13,3.807,8.04c-3.549,1.688-6.465,4.697-8.266,8.462c-1.803-3.765-4.719-6.774-8.266-8.462   c2.322-1.91,3.807-4.805,3.807-8.04c0-5.74-4.67-10.409-10.41-10.409c-5.738,0-10.408,4.669-10.408,10.409   c0,3.235,1.484,6.13,3.807,8.04c-3.52,1.674-6.416,4.648-8.221,8.369c-1.807-3.721-4.703-6.695-8.223-8.369   c2.322-1.91,3.807-4.805,3.807-8.04c0-5.74-4.67-10.409-10.408-10.409c-5.74,0-10.408,4.669-10.408,10.409   c0,3.235,1.484,6.13,3.807,8.04C5.695,67.604,1.473,74.241,1.473,81.954v1.984h29.646h4.025h25.711h3.938h29.734v-1.984   C94.527,74.241,90.305,67.604,84.293,64.746z"
   id="path7"
   style="fill:#000000;fill-opacity:1" />
</g>
</svg>