<?xml version="1.0" encoding="utf-8"?>
<!-- Generator: Adobe Illustrator 17.1.0, SVG Export Plug-In . SVG Version: 6.00 Build 0)  -->
<!DOCTYPE svg PUBLIC "-//W3C//DTD SVG 1.1//EN" "http://www.w3.org/Graphics/SVG/1.1/DTD/svg11.dtd">
<svg version="1.1" id="Layer_1" xmlns="http://www.w3.org/2000/svg" xmlns:xlink="http://www.w3.org/1999/xlink" x="0px" y="0px"
	 viewBox="0 0 300 300" enable-background="new 0 0 300 300" xml:space="preserve">
<path fill="#FFFFFF" d="M285.212,183.692c-3.655-5.573-8.656-9.919-14.403-12.816c1.965-26.034-5.919-47.792-17.926-48.845
	l-0.439-0.038c-0.565-22.009-7.645-43.866-20.841-62.577c-21.256-30.138-55.469-48.129-91.521-48.129
	c-36.053,0-70.266,17.991-91.523,48.129c-13.204,18.726-20.284,40.596-20.845,62.62l-0.435,0.037
	C15.071,123.145,7.07,145.59,9.405,172.2c2.34,26.619,14.136,47.324,26.338,46.253h0.005l39.833-3.496
	c3.36-0.295,6.462-1.913,8.628-4.496c2.171-2.588,3.219-5.924,2.924-9.284l-6.237-71.046c-0.617-6.995-6.784-12.171-13.78-11.553
	l-10.537,0.927c0.95-15.236,6.092-30.218,15.474-43.521c16.115-22.848,40.909-35.949,68.029-35.949
	c27.119,0,51.914,13.102,68.029,35.949c9.376,13.289,14.509,28.257,15.468,43.474l-10.532-0.922
	c-6.996-0.618-13.162,4.557-13.78,11.553l-6.237,71.046c-0.294,3.359,0.754,6.696,2.925,9.284c2.166,2.583,5.269,4.202,8.628,4.496
	l39.833,3.496h0.004c8.976,0.786,17.697-10.257,22.634-26.717c0.753,0.79,1.516,1.571,2.128,2.508
	c3.37,5.132,3.921,11.566,1.474,17.2L258.008,240.5c-3.842,8.839-12.549,14.547-22.187,14.547h-17.023
	c-1.39-4.473-5.405-7.786-10.336-7.786h-31.546c-6.064,0-10.981,4.917-10.981,10.981v12.774c0,6.064,4.917,10.982,10.981,10.982
	h31.546c4.931,0,8.946-3.313,10.336-7.786h17.023c17.274,0,32.884-10.238,39.762-26.077l12.652-29.099
	C293.26,207.457,292.132,194.243,285.212,183.692z"/>
</svg>
