<svg xmlns:svg="http://www.w3.org/2000/svg" xmlns="http://www.w3.org/2000/svg" width="639.6" height="537.9" version="1.1"><style>.s0{fill-opacity:1;fill:#ef5350;}</style><g transform="translate(-55.197085,-263.41333)"><path d="m193.9 263.4c-78.5-1.2-137.1 58.8-138.7 145.7-2.4 130.6 214.1 289 263.6 334.3 0.2-0.2 0.5-0.5 0.8-0.7 4.7-52.6-0.4-102.1-22-148.7l50.2 35.3c-8.3-54.1-26.9-104.3-50.2-152.7l63.6 21.2c-10.7-37.1-25.9-72.5-51.6-103.9l55.8 6.3c-7.3-31-16.2-61.8-47.1-87.6-40.4-36.5-86.3-48.6-124.5-49.2zM600.2 385.5 600.2 385.5c-36.5-11.6-82-11-133.6 6.9-0.1-0.1-0.2-0.3-0.3-0.4 18.1 33.3 22.3 65.8 17.7 97.8l-51.2-23.3c19.1 35.7 28 73.5 17 114.8l-54-39.8c10.7 50.7 10.6 104.4 0.6 160.8l-36.8-49.2c-2.1 39.7 2.1 69.3-25 148.3 65.9-31.5 314.4-109.4 352.2-233.7 25.3-83.1-11.9-158.2-86.7-182.1z" class="s0"/></g></svg>