<?xml version="1.0" encoding="UTF-8" standalone="no"?>
<!-- generated at drububu.com  -->

<svg
   xmlns:dc="http://purl.org/dc/elements/1.1/"
   xmlns:cc="http://creativecommons.org/ns#"
   xmlns:rdf="http://www.w3.org/1999/02/22-rdf-syntax-ns#"
   xmlns:svg="http://www.w3.org/2000/svg"
   xmlns="http://www.w3.org/2000/svg"
   xmlns:sodipodi="http://sodipodi.sourceforge.net/DTD/sodipodi-0.dtd"
   xmlns:inkscape="http://www.inkscape.org/namespaces/inkscape"
   version="1.1"
   preserveAspectRatio="xMinYMin meet"
   x="0px"
   y="0px"
   width="17px"
   height="17px"
   viewBox="0 0 17 17"
   id="svg2"
   inkscape:version="0.48.2 r9819"
   sodipodi:docname="swords.svg">
  <metadata
     id="metadata250">
    <rdf:RDF>
      <cc:Work
         rdf:about="">
        <dc:format>image/svg+xml</dc:format>
        <dc:type
           rdf:resource="http://purl.org/dc/dcmitype/StillImage" />
      </cc:Work>
    </rdf:RDF>
  </metadata>
  <defs
     id="defs248" />
  <sodipodi:namedview
     pagecolor="#ffffff"
     bordercolor="#666666"
     borderopacity="1"
     objecttolerance="10"
     gridtolerance="10"
     guidetolerance="10"
     inkscape:pageopacity="0"
     inkscape:pageshadow="2"
     inkscape:window-width="1680"
     inkscape:window-height="988"
     id="namedview246"
     showgrid="false"
     inkscape:zoom="32"
     inkscape:cx="14.598607"
     inkscape:cy="5.486944"
     inkscape:window-x="1672"
     inkscape:window-y="-8"
     inkscape:window-maximized="0"
     inkscape:current-layer="svg2" />
  <path
     d="M1 0h3v1h-2v2h-1z"
     fill="rgb(68,68,68)"
     id="path6" />
  <path
     d="M13 0h3v3h-1v-2h-2z"
     fill="rgb(68,68,68)"
     id="path10" />
  <path
     d="M2 1h1v1h-1z"
     fill="rgb(216,216,216)"
     id="path14" />
  <path
     d="M3 1h1v1h-1z"
     fill="rgb(255,255,255)"
     id="path16" />
  <path
     d="M4 1h1v1h-1z"
     fill="rgb(68,68,68)"
     id="path18" />
  <path
     d="M12 1h1v1h-1z"
     fill="rgb(68,68,68)"
     id="path20" />
  <path
     d="M13 1h1v1h-1z"
     fill="rgb(255,255,255)"
     id="path22" />
  <path
     d="M14 1h1v1h-1z"
     fill="rgb(216,216,216)"
     id="path24" />
  <path
     d="M2 2h1v1h-1z"
     fill="rgb(255,255,255)"
     id="path26" />
  <path
     d="M3 2h1v1h-1z"
     fill="rgb(216,216,216)"
     id="path28" />
  <path
     d="M4 2h1v1h-1z"
     fill="rgb(255,255,255)"
     id="path30" />
  <path
     d="M5 2h1v1h-1z"
     fill="rgb(68,68,68)"
     id="path32" />
  <path
     d="M11 2h1v1h-1z"
     fill="rgb(68,68,68)"
     id="path34" />
  <path
     d="M12 2h1v1h-1z"
     fill="rgb(255,255,255)"
     id="path36" />
  <path
     d="M13 2h1v1h-1z"
     fill="rgb(216,216,216)"
     id="path38" />
  <path
     d="M14 2h1v1h-1z"
     fill="rgb(255,255,255)"
     id="path40" />
  <path
     d="M2 3h1v1h-1z"
     fill="rgb(68,68,68)"
     id="path42" />
  <path
     d="M3 3h1v1h-1z"
     fill="rgb(255,255,255)"
     id="path44" />
  <path
     d="M4 3h1v1h-1z"
     fill="rgb(216,216,216)"
     id="path46" />
  <path
     d="M5 3h1v1h-1z"
     fill="rgb(255,255,255)"
     id="path48" />
  <path
     d="M6 3h1v1h-1z"
     fill="rgb(68,68,68)"
     id="path50" />
  <path
     d="M10 3h1v1h-1z"
     fill="rgb(68,68,68)"
     id="path52" />
  <path
     d="M11 3h1v1h-1z"
     fill="rgb(255,255,255)"
     id="path54" />
  <path
     d="M12 3h1v1h-1z"
     fill="rgb(216,216,216)"
     id="path56" />
  <path
     d="M13 3h1v1h-1z"
     fill="rgb(255,255,255)"
     id="path58" />
  <path
     d="M14 3h1v1h-1z"
     fill="rgb(68,68,68)"
     id="path60" />
  <path
     d="M3 4h1v1h-1z"
     fill="rgb(68,68,68)"
     id="path62" />
  <path
     d="M4 4h1v1h-1z"
     fill="rgb(255,255,255)"
     id="path64" />
  <path
     d="M5 4h1v1h-1z"
     fill="rgb(216,216,216)"
     id="path66" />
  <path
     d="M6 4h1v1h-1z"
     fill="rgb(255,255,255)"
     id="path68" />
  <path
     d="M7 4h1v1h-1z"
     fill="rgb(68,68,68)"
     id="path70" />
  <path
     d="M9 4h1v1h-1z"
     fill="rgb(68,68,68)"
     id="path72" />
  <path
     d="M10 4h1v1h-1z"
     fill="rgb(255,255,255)"
     id="path74" />
  <path
     d="M11 4h1v1h-1z"
     fill="rgb(216,216,216)"
     id="path76" />
  <path
     d="M12 4h1v1h-1z"
     fill="rgb(255,255,255)"
     id="path78" />
  <path
     d="M13 4h1v1h-1z"
     fill="rgb(68,68,68)"
     id="path80" />
  <path
     d="M4 5h1v1h-1z"
     fill="rgb(68,68,68)"
     id="path82" />
  <path
     d="M5 5h1v1h-1z"
     fill="rgb(255,255,255)"
     id="path84" />
  <path
     d="M6 5h1v1h-1z"
     fill="rgb(216,216,216)"
     id="path86" />
  <path
     d="M7 5h1v1h-1z"
     fill="rgb(255,255,255)"
     id="path88" />
  <path
     d="M8 5h1v1h-1z"
     fill="rgb(68,68,68)"
     id="path90" />
  <path
     d="M9 5h1v1h-1z"
     fill="rgb(255,255,255)"
     id="path92" />
  <path
     d="M10 5h1v1h-1z"
     fill="rgb(216,216,216)"
     id="path94" />
  <path
     d="M11 5h1v1h-1z"
     fill="rgb(255,255,255)"
     id="path96" />
  <path
     d="M12 5h1v1h-1z"
     fill="rgb(68,68,68)"
     id="path98" />
  <path
     d="M2 6h2v1h-1v1h-1z"
     fill="rgb(40,40,40)"
     id="path100" />
  <path
     d="M5 6h1v1h-1z"
     fill="rgb(68,68,68)"
     id="path104" />
  <path
     d="M6 6h1v1h-1z"
     fill="rgb(255,255,255)"
     id="path106" />
  <path
     d="M7 6h1v1h-1z"
     fill="rgb(216,216,216)"
     id="path108" />
  <path
     d="M8 6h1v1h-1z"
     fill="rgb(255,255,255)"
     id="path110" />
  <path
     d="M9 6h1v1h-1z"
     fill="rgb(68,68,68)"
     id="path112" />
  <path
     d="M10 6h1v1h-1z"
     fill="rgb(255,255,255)"
     id="path114" />
  <path
     d="M11 6h1v1h-1z"
     fill="rgb(68,68,68)"
     id="path116" />
  <path
     d="M13 6h2v2h-1v-1h-1z"
     fill="rgb(40,40,40)"
     id="path120" />
  <path
     d="M3 7h1v1h-1z"
     fill="rgb(107,107,107)"
     id="path122" />
  <path
     d="M4 7h1v1h-1z"
     fill="rgb(40,40,40)"
     id="path124" />
  <path
     d="M6 7h1v1h-1z"
     fill="rgb(68,68,68)"
     id="path128" />
  <path
     d="M7 7h1v1h-1z"
     fill="rgb(255,255,255)"
     id="path130" />
  <path
     d="M8 7h1v1h-1z"
     fill="rgb(216,216,216)"
     id="path132" />
  <path
     d="M9 7h1v1h-1z"
     fill="rgb(255,255,255)"
     id="path134" />
  <path
     d="M10 7h1v1h-1z"
     fill="rgb(68,68,68)"
     id="path136" />
  <path
     d="M12 7h1v1h-1z"
     fill="rgb(40,40,40)"
     id="path140" />
  <path
     d="M13 7h1v1h-1z"
     fill="rgb(107,107,107)"
     id="path142" />
  <path
     d="M3 8h1v2h-1z"
     fill="rgb(40,40,40)"
     id="path144" />
  <path
     d="M4 8h1v2h-1z"
     fill="rgb(150,150,150)"
     id="path146" />
  <path
     d="M5 8h1v2h-1z"
     fill="rgb(40,40,40)"
     id="path148" />
  <path
     d="M6 8h1v1h-1z"
     fill="rgb(255,255,255)"
     id="path150" />
  <path
     d="M7 8h1v1h-1z"
     fill="rgb(68,68,68)"
     id="path152" />
  <path
     d="M8 8h1v1h-1z"
     fill="rgb(255,255,255)"
     id="path154" />
  <path
     d="M9 8h1v1h-1z"
     fill="rgb(216,216,216)"
     id="path156" />
  <path
     d="M10 8h1v1h-1z"
     fill="rgb(255,255,255)"
     id="path158" />
  <path
     d="M11 8h1v2h-1z"
     fill="rgb(40,40,40)"
     id="path160" />
  <path
     d="M12 8h1v2h-1z"
     fill="rgb(150,150,150)"
     id="path162" />
  <path
     d="M13 8h1v2h-1z"
     fill="rgb(40,40,40)"
     id="path164" />
  <path
     d="M6 9h1v1h-1z"
     fill="rgb(216,216,216)"
     id="path166" />
  <path
     d="M7 9h1v1h-1z"
     fill="rgb(255,255,255)"
     id="path168" />
  <path
     d="M8 9h1v1h-1z"
     fill="rgb(68,68,68)"
     id="path170" />
  <path
     d="M9 9h1v1h-1z"
     fill="rgb(255,255,255)"
     id="path172" />
  <path
     d="M10 9h1v1h-1z"
     fill="rgb(216,216,216)"
     id="path174" />
  <path
     d="M4 10h1v1h-1z"
     fill="rgb(40,40,40)"
     id="path176" />
  <path
     d="M5 10h1v1h-1z"
     fill="rgb(150,150,150)"
     id="path178" />
  <path
     d="M6 10h2v1h-2z"
     fill="rgb(40,40,40)"
     id="path180" />
  <path
     d="M9 10h2v1h-2z"
     fill="rgb(40,40,40)"
     id="path184" />
  <path
     d="M11 10h1v1h-1z"
     fill="rgb(150,150,150)"
     id="path186" />
  <path
     d="M12 10h1v1h-1z"
     fill="rgb(40,40,40)"
     id="path188" />
  <path
     d="M3 11h1v1h-1z"
     fill="rgb(73,54,21)"
     id="path190" />
  <path
     d="M4 11h1v1h-1z"
     fill="rgb(104,78,30)"
     id="path192" />
  <path
     d="M5 11h1v1h-1z"
     fill="rgb(40,40,40)"
     id="path194" />
  <path
     d="M6 11h1v1h-1z"
     fill="rgb(150,150,150)"
     id="path196" />
  <path
     d="M7 11h1v1h-1z"
     fill="rgb(107,107,107)"
     id="path198" />
  <path
     d="M8 11h1v1h-1z"
     fill="rgb(40,40,40)"
     id="path200" />
  <path
     d="M9 11h1v1h-1z"
     fill="rgb(107,107,107)"
     id="path202" />
  <path
     d="M10 11h1v1h-1z"
     fill="rgb(150,150,150)"
     id="path204" />
  <path
     d="M11 11h1v1h-1z"
     fill="rgb(40,40,40)"
     id="path206" />
  <path
     d="M12 11h1v1h-1z"
     fill="rgb(104,78,30)"
     id="path208" />
  <path
     d="M13 11h1v1h-1z"
     fill="rgb(73,54,21)"
     id="path210" />
  <path
     d="M2 12h1v1h-1z"
     fill="rgb(73,54,21)"
     id="path212" />
  <path
     d="M3 12h1v1h-1z"
     fill="rgb(137,103,39)"
     id="path214" />
  <path
     d="M4 12h1v1h-1z"
     fill="rgb(40,30,11)"
     id="path216" />
  <path
     d="M6 12h2v1h1v-1h2v1h-1v1h-3v-1h-1z"
     fill="rgb(40,40,40)"
     id="path220" />
  <path
     d="M8 12h1v1h-1z"
     fill="rgb(107,107,107)"
     id="path222" />
  <path
     d="M12 12h1v1h-1z"
     fill="rgb(40,30,11)"
     id="path224" />
  <path
     d="M13 12h1v1h-1z"
     fill="rgb(137,103,39)"
     id="path226" />
  <path
     d="M14 12h1v1h-1z"
     fill="rgb(73,54,21)"
     id="path228" />
  <path
     d="M0 13h2v1h-1v1h1v-1h1v2h-3z"
     fill="rgb(40,40,40)"
     id="path230" />
  <path
     d="M2 13h1v1h-1z"
     fill="rgb(104,78,30)"
     id="path232" />
  <path
     d="M3 13h1v1h-1z"
     fill="rgb(40,30,11)"
     id="path234" />
  <path
     d="M13 13h1v1h-1z"
     fill="rgb(40,30,11)"
     id="path236" />
  <path
     d="M14 13h1v1h-1z"
     fill="rgb(104,78,30)"
     id="path238" />
  <path
     d="M15 13h2v3h-3v-2h1v1h1v-1h-1z"
     fill="rgb(40,40,40)"
     id="path240" />
  <path
     d="M1 14h1v1h-1z"
     fill="rgb(150,150,150)"
     id="path242" />
  <path
     d="M15 14h1v1h-1z"
     fill="rgb(150,150,150)"
     id="path244" />
</svg>
